<svg id="visual" viewBox="0 0 900 600" width="900" height="600" xmlns="http://www.w3.org/2000/svg" xmlns:xlink="http://www.w3.org/1999/xlink" version="1.1"><rect x="0" y="0" width="900" height="600" fill="#001220"></rect><defs><linearGradient id="grad1_0" x1="33.3%" y1="0%" x2="100%" y2="100%"><stop offset="20%" stop-color="#001220" stop-opacity="1"></stop><stop offset="80%" stop-color="#001220" stop-opacity="1"></stop></linearGradient></defs><defs><linearGradient id="grad2_0" x1="0%" y1="0%" x2="66.7%" y2="100%"><stop offset="20%" stop-color="#001220" stop-opacity="1"></stop><stop offset="80%" stop-color="#001220" stop-opacity="1"></stop></linearGradient></defs><g transform="translate(900, 0)"><path d="M0 270.4C-31.9 254 -63.7 237.5 -91.8 221.7C-120 205.9 -144.3 190.8 -172.5 172.5C-200.8 154.2 -232.9 132.8 -249.8 103.5C-266.8 74.2 -268.6 37.1 -270.4 0L0 0Z" fill="#FBAE3C"></path></g><g transform="translate(0, 600)"><path d="M0 -270.4C34.3 -259.6 68.6 -248.8 96.1 -231.9C123.5 -215 143.9 -192 171.1 -171.1C198.3 -150.3 232.2 -131.6 249.8 -103.5C267.5 -75.3 269 -37.7 270.4 0L0 0Z" fill="#FBAE3C"></path></g></svg>