<svg id="visual" viewBox="0 0 900 600" width="900" height="600" xmlns="http://www.w3.org/2000/svg" xmlns:xlink="http://www.w3.org/1999/xlink" version="1.1"><rect x="0" y="0" width="900" height="600" fill="#001220"></rect><path d="M0 294L16.7 291.3C33.3 288.7 66.7 283.3 100 286C133.3 288.7 166.7 299.3 200 305C233.3 310.7 266.7 311.3 300 302C333.3 292.7 366.7 273.3 400 271.8C433.3 270.3 466.7 286.7 500 283.7C533.3 280.7 566.7 258.3 600 263.2C633.3 268 666.7 300 700 308.7C733.3 317.3 766.7 302.7 800 288.5C833.3 274.3 866.7 260.7 883.3 253.8L900 247L900 601L883.3 601C866.7 601 833.3 601 800 601C766.7 601 733.3 601 700 601C666.7 601 633.3 601 600 601C566.7 601 533.3 601 500 601C466.7 601 433.3 601 400 601C366.7 601 333.3 601 300 601C266.7 601 233.3 601 200 601C166.7 601 133.3 601 100 601C66.7 601 33.3 601 16.7 601L0 601Z" fill="#fa7268"></path><path d="M0 383L16.7 384.5C33.3 386 66.7 389 100 379.3C133.3 369.7 166.7 347.3 200 345.7C233.3 344 266.7 363 300 367.8C333.3 372.7 366.7 363.3 400 351.5C433.3 339.7 466.7 325.3 500 330.8C533.3 336.3 566.7 361.7 600 360.7C633.3 359.7 666.7 332.3 700 325.2C733.3 318 766.7 331 800 334.7C833.3 338.3 866.7 332.7 883.3 329.8L900 327L900 601L883.3 601C866.7 601 833.3 601 800 601C766.7 601 733.3 601 700 601C666.7 601 633.3 601 600 601C566.7 601 533.3 601 500 601C466.7 601 433.3 601 400 601C366.7 601 333.3 601 300 601C266.7 601 233.3 601 200 601C166.7 601 133.3 601 100 601C66.7 601 33.3 601 16.7 601L0 601Z" fill="#ef5f67"></path><path d="M0 407L16.7 414.5C33.3 422 66.7 437 100 441.8C133.3 446.7 166.7 441.3 200 439.3C233.3 437.3 266.7 438.7 300 429.7C333.3 420.7 366.7 401.3 400 394.3C433.3 387.3 466.7 392.7 500 402C533.3 411.3 566.7 424.7 600 430.3C633.3 436 666.7 434 700 429C733.3 424 766.7 416 800 410.7C833.3 405.3 866.7 402.7 883.3 401.3L900 400L900 601L883.3 601C866.7 601 833.3 601 800 601C766.7 601 733.3 601 700 601C666.7 601 633.3 601 600 601C566.7 601 533.3 601 500 601C466.7 601 433.3 601 400 601C366.7 601 333.3 601 300 601C266.7 601 233.3 601 200 601C166.7 601 133.3 601 100 601C66.7 601 33.3 601 16.7 601L0 601Z" fill="#e34c67"></path><path d="M0 452L16.7 453C33.3 454 66.7 456 100 461C133.3 466 166.7 474 200 480.3C233.3 486.7 266.7 491.3 300 495.5C333.3 499.7 366.7 503.3 400 499.7C433.3 496 466.7 485 500 481.3C533.3 477.7 566.7 481.3 600 481.7C633.3 482 666.7 479 700 473.5C733.3 468 766.7 460 800 454.5C833.3 449 866.7 446 883.3 444.5L900 443L900 601L883.3 601C866.7 601 833.3 601 800 601C766.7 601 733.3 601 700 601C666.7 601 633.3 601 600 601C566.7 601 533.3 601 500 601C466.7 601 433.3 601 400 601C366.7 601 333.3 601 300 601C266.7 601 233.3 601 200 601C166.7 601 133.3 601 100 601C66.7 601 33.3 601 16.7 601L0 601Z" fill="#d53867"></path><path d="M0 529L16.7 532.3C33.3 535.7 66.7 542.3 100 538.5C133.3 534.7 166.7 520.3 200 514C233.3 507.7 266.7 509.3 300 509.3C333.3 509.3 366.7 507.7 400 506.2C433.3 504.7 466.7 503.3 500 505.7C533.3 508 566.7 514 600 523C633.3 532 666.7 544 700 543.7C733.3 543.3 766.7 530.7 800 529.7C833.3 528.7 866.7 539.3 883.3 544.7L900 550L900 601L883.3 601C866.7 601 833.3 601 800 601C766.7 601 733.3 601 700 601C666.7 601 633.3 601 600 601C566.7 601 533.3 601 500 601C466.7 601 433.3 601 400 601C366.7 601 333.3 601 300 601C266.7 601 233.3 601 200 601C166.7 601 133.3 601 100 601C66.7 601 33.3 601 16.7 601L0 601Z" fill="#c62368"></path></svg>